<?xml version="1.0" encoding="utf-8"?>
<!-- Generator: Adobe Illustrator 17.0.0, SVG Export Plug-In . SVG Version: 6.00 Build 0)  -->
<!DOCTYPE svg PUBLIC "-//W3C//DTD SVG 1.1//EN" "http://www.w3.org/Graphics/SVG/1.1/DTD/svg11.dtd">
<svg version="1.1" id="Layer_1" xmlns="http://www.w3.org/2000/svg" xmlns:xlink="http://www.w3.org/1999/xlink" x="0px" y="0px"
	 width="300px" height="180px" viewBox="0 0 300 180" enable-background="new 0 0 300 180" xml:space="preserve">
<path fill="#E67E22" d="M289.6,127.649l-0.943-6.614c-0.91-5.113-2.268-9.884-4.328-13.684
	c-7.664-14.144-66.055-88.112-82.841-92.91c-2.808-0.804-10.278-2.666-19.045-2.666c-12.037,0-21.851,3.515-28.389,10.169
	c-5.899,6.002-9.098,14.369-9.526,24.911c-8.285,3.788-28.689,14.096-34.312,25.966c-2.836,5.987-14.608,11.33-24.07,15.63
	c-7.612,3.457-14.187,6.444-18.208,10.16c-2.159,1.992-5.089,4.955-8.467,8.376c-9.62,9.735-24.158,24.45-32.796,28.089
	c-9.777,4.115-16.24,10.799-16.871,17.441c-0.337,3.557,1.134,6.799,3.939,8.667c5.052,3.366,23.385,5.883,36.401,5.883
	c2.745,0,5.395-0.103,7.861-0.321c7.4-0.676,34.194-1.222,59.726-1.222c30.545,0,44.329,0.746,46.855,1.386
	c5.295,1.34,10.041,1.271,16.992,0.746c4.549-0.334,9.847-0.725,17.665-0.585c8.028,0.158,15.439,0.47,21.541,0.734
	c5.429,0.227,9.841,0.419,12.78,0.419c1.974,0,3.233-0.079,4.097-0.24c0.318-0.039,1.956-0.17,9.689-0.17
	c13.838,0,36.189,0.409,36.201,0.409c2.927,0.042,5.059-1.965,5.404-4.682C289.09,162.452,291.31,144.432,289.6,127.649z
	 M136.615,77.953c10.915-2.781,20.889-0.619,22.278,4.84c1.389,5.45-6.323,12.137-17.235,14.915
	c-10.915,2.781-20.886,0.619-22.278-4.84C117.995,87.418,125.71,80.737,136.615,77.953z M84.189,104.995
	c10.548-0.892,19.433,2.972,19.846,8.643c0.422,5.665-7.788,11-18.33,11.891c-10.548,0.895-19.433-2.972-19.846-8.646
	C65.444,111.215,73.648,105.893,84.189,104.995z M205.188,154.51c-0.3,0.649-0.443,1.322-0.464,1.989
	c-1.726-0.049-3.475-0.091-5.268-0.13c-1.24-0.021-2.417-0.03-3.545-0.03c-6.481,0-11.279,0.358-15.13,0.646
	c-5.556,0.422-9.386,0.607-13.568-0.446c-5.589-1.419-29.993-1.713-49.478-1.713c-26.239,0-52.899,0.555-60.696,1.265
	c-1.817,0.167-3.797,0.218-5.799,0.24c20.013-7.812,43.604-15.403,50.537-13.787c4.103,0.977,7.166,2.011,9.871,2.92
	c6.332,2.138,11.345,3.827,20.395,0.998c2.538-0.795,5.153-1.832,7.794-2.893c9.283-3.712,15.282-5.714,20.319-2.181
	c11.515,8.064,20.926,6.678,30.027,5.362l0.71-0.097c6.784-0.995,13.58-0.073,15.157,2.038
	C206.759,149.637,206.446,151.762,205.188,154.51z M189.633,122.57c-13.544,1.004-24.956-3.239-25.502-9.495
	c-0.549-6.253,9.984-12.143,23.522-13.15c13.538-1.016,24.959,3.239,25.505,9.492C213.703,115.664,203.171,121.563,189.633,122.57z
	 M231.936,114.701c-2.208-7.482-5.547-15.106-10.551-19.036c-12.41-9.754-27.861-22.761-34.005-30.021
	c-0.816-0.961-17.141-19.979-31.895-21.338c0.701-6.344,2.754-11.342,6.205-14.851c5.659-5.756,14.411-6.966,20.756-6.966
	c7.421,0,13.729,1.577,16.101,2.25c9.665,2.76,52.484,52.972,70.149,78.061c-5.947-2.414-12.825-3.042-20.383-0.206
	C240.649,105.462,235.496,109.587,231.936,114.701z M278.833,157.436c-7.4-0.115-21.596-0.321-31.485-0.321
	c-8.989,0-10.608,0.164-11.494,0.321c-0.412,0.064-1.049,0.094-1.844,0.106c0.039-0.694,0.079-1.441,0.109-2.123
	c1.24-25.484,2.444-36.993,17.954-42.803c13.119-4.931,22.682,6.733,26.384,12.343C280.047,135.798,279.57,149.042,278.833,157.436z
	"/>
</svg>
