<?xml version="1.0" encoding="utf-8"?>
<!-- Generator: Adobe Illustrator 17.0.0, SVG Export Plug-In . SVG Version: 6.00 Build 0)  -->
<!DOCTYPE svg PUBLIC "-//W3C//DTD SVG 1.1//EN" "http://www.w3.org/Graphics/SVG/1.1/DTD/svg11.dtd">
<svg version="1.1" id="Layer_1" xmlns="http://www.w3.org/2000/svg" xmlns:xlink="http://www.w3.org/1999/xlink" x="0px" y="0px"
	 width="30px" height="30px" viewBox="10 10 30 30" enable-background="new 10 10 30 30" xml:space="preserve">
<g id="facebook_1_">
	<path fill="#E67E22" d="M23.32,11.883c-1.062,0.576-1.805,1.346-2.213,2.29c-0.381,0.888-0.568,2.144-0.568,3.848v0.58h-2.746
		v5.544h2.746v14.799h6.598V24.146h3.695v-5.544h-3.695V18.11c0-1.068,0.219-1.336,0.246-1.365c0.142-0.152,0.474-0.236,0.934-0.236
		c0.656,0,1.355,0.086,2.078,0.259l0.837,0.2l0.974-5.02l-0.706-0.222C28.641,10.826,25.34,10.787,23.32,11.883z M29.931,14.99
		c-1.561-0.254-3.032-0.156-3.762,0.631c-0.464,0.496-0.689,1.31-0.689,2.488v2.147h3.697v2.237h-3.697v14.801H22.19v-14.8h-2.744
		v-2.237h2.744v-2.234c0-1.452,0.146-2.527,0.433-3.192c0.261-0.605,0.746-1.092,1.483-1.493c1.447-0.786,3.96-0.798,6.192-0.236
		L29.931,14.99z"/>
</g>
</svg>
