<?xml version="1.0" encoding="utf-8"?>
<!-- Generator: Adobe Illustrator 17.0.0, SVG Export Plug-In . SVG Version: 6.00 Build 0)  -->
<!DOCTYPE svg PUBLIC "-//W3C//DTD SVG 1.1//EN" "http://www.w3.org/Graphics/SVG/1.1/DTD/svg11.dtd">
<svg version="1.1" id="Layer_1" xmlns="http://www.w3.org/2000/svg" xmlns:xlink="http://www.w3.org/1999/xlink" x="0px" y="0px"
	 width="30px" height="30px" viewBox="10 10 30 30" enable-background="new 10 10 30 30" xml:space="preserve">
<g id="twitter">
	<path fill="#E67E22" d="M36.161,17.388c0.175-0.592-0.025-1.233-0.51-1.618c-0.275-0.22-0.608-0.331-0.946-0.331
		c-0.267,0-0.533,0.07-0.773,0.213c-0.476,0.279-0.973,0.503-1.493,0.661c-0.993-0.759-2.224-1.182-3.489-1.182
		c-2.9,0-5.303,2.164-5.682,4.961c-2.312-0.495-4.419-1.769-5.937-3.63c-0.289-0.357-0.723-0.56-1.176-0.56
		c-0.038,0-0.078,0.003-0.119,0.005c-0.497,0.039-0.941,0.319-1.192,0.749c-0.51,0.873-0.778,1.87-0.778,2.884
		c0,0.685,0.122,1.352,0.346,1.975c-0.242,0.275-0.382,0.632-0.382,1.009c0,1.504,0.568,2.886,1.513,3.925
		c-0.058,0.259-0.049,0.533,0.036,0.796c0.327,1.025,0.926,1.907,1.7,2.58c-0.503,0.114-1.023,0.172-1.551,0.172
		c-0.274,0-0.551-0.018-0.83-0.049c-0.059-0.007-0.118-0.011-0.178-0.011c-0.635,0-1.21,0.397-1.426,1.009
		c-0.239,0.664,0.014,1.407,0.607,1.789c2.18,1.396,4.699,2.135,7.284,2.135c8.384,0,13.422-6.748,13.512-13.334
		c0.682-0.581,1.282-1.25,1.791-1.996c0.192-0.254,0.306-0.569,0.306-0.915C36.795,18.116,36.545,17.665,36.161,17.388z
		 M33.168,20.808c0.01,0.18,0.013,0.363,0.013,0.545c0,5.572-4.241,11.996-11.996,11.996c-2.38,0-4.597-0.698-6.464-1.894
		c0.328,0.036,0.666,0.059,1.006,0.059c1.976,0,3.793-0.675,5.237-1.806c-1.847-0.033-3.403-1.253-3.94-2.928
		c0.258,0.049,0.522,0.077,0.792,0.077c0.386,0,0.758-0.052,1.111-0.148c-1.929-0.389-3.383-2.091-3.383-4.136
		c0-0.018,0-0.035,0-0.052c0.569,0.315,1.219,0.504,1.91,0.526c-1.131-0.756-1.874-2.048-1.874-3.51
		c0-0.772,0.208-1.496,0.571-2.119c2.078,2.551,5.186,4.229,8.69,4.404c-0.073-0.307-0.108-0.631-0.108-0.961
		c0-2.326,1.887-4.214,4.215-4.214c1.214,0,2.31,0.512,3.079,1.33c0.959-0.188,1.863-0.539,2.677-1.022
		c-0.315,0.984-0.984,1.81-1.853,2.332c0.852-0.101,1.663-0.327,2.421-0.664C34.707,19.471,33.993,20.213,33.168,20.808z"/>
</g>
</svg>
